<mxfile host="app.diagrams.net" modified="2022-01-14T14:05:48.439Z" agent="5.0 (Windows NT 10.0; Win64; x64) AppleWebKit/537.36 (KHTML, like Gecko) Chrome/97.0.4692.71 Safari/537.36" etag="AyDOAqAzgpgu6511oKTY" version="16.2.6" type="github">
  <diagram id="kgpKYQtTHZ0yAKxKKP6v" name="Page-1">
    <mxGraphModel dx="1921" dy="515" grid="1" gridSize="10" guides="1" tooltips="1" connect="1" arrows="1" fold="1" page="1" pageScale="1" pageWidth="850" pageHeight="1100" math="0" shadow="0">
      <root>
        <mxCell id="0" />
        <mxCell id="1" parent="0" />
        <mxCell id="hIWwmgVT_ScR9MW9IXAg-31" value="" style="rounded=0;whiteSpace=wrap;html=1;" vertex="1" parent="1">
          <mxGeometry x="-30" y="10" width="850" height="620" as="geometry" />
        </mxCell>
        <mxCell id="3nuBFxr9cyL0pnOWT2aG-1" value="Application" style="shape=umlLifeline;perimeter=lifelinePerimeter;container=1;collapsible=0;recursiveResize=0;rounded=0;shadow=0;strokeWidth=1;" parent="1" vertex="1">
          <mxGeometry x="120" y="80" width="100" height="480" as="geometry" />
        </mxCell>
        <mxCell id="3nuBFxr9cyL0pnOWT2aG-2" value="" style="points=[];perimeter=orthogonalPerimeter;rounded=0;shadow=0;strokeWidth=1;" parent="3nuBFxr9cyL0pnOWT2aG-1" vertex="1">
          <mxGeometry x="45" y="70" width="10" height="410" as="geometry" />
        </mxCell>
        <mxCell id="3nuBFxr9cyL0pnOWT2aG-5" value="Kakao Server" style="shape=umlLifeline;perimeter=lifelinePerimeter;container=1;collapsible=0;recursiveResize=0;rounded=0;shadow=0;strokeWidth=1;" parent="1" vertex="1">
          <mxGeometry x="300" y="80" width="100" height="480" as="geometry" />
        </mxCell>
        <mxCell id="3nuBFxr9cyL0pnOWT2aG-6" value="" style="points=[];perimeter=orthogonalPerimeter;rounded=0;shadow=0;strokeWidth=1;" parent="3nuBFxr9cyL0pnOWT2aG-5" vertex="1">
          <mxGeometry x="45" y="150" width="10" height="60" as="geometry" />
        </mxCell>
        <mxCell id="hIWwmgVT_ScR9MW9IXAg-19" value="" style="points=[];perimeter=orthogonalPerimeter;rounded=0;shadow=0;strokeWidth=1;" vertex="1" parent="3nuBFxr9cyL0pnOWT2aG-5">
          <mxGeometry x="45" y="290" width="10" height="70" as="geometry" />
        </mxCell>
        <mxCell id="3nuBFxr9cyL0pnOWT2aG-8" value="임시 예매" style="verticalAlign=bottom;endArrow=block;shadow=0;strokeWidth=1;entryX=0.204;entryY=-0.067;entryDx=0;entryDy=0;entryPerimeter=0;" parent="1" target="hIWwmgVT_ScR9MW9IXAg-4" edge="1">
          <mxGeometry relative="1" as="geometry">
            <mxPoint x="175" y="150.69999999999993" as="sourcePoint" />
            <mxPoint x="740" y="151" as="targetPoint" />
          </mxGeometry>
        </mxCell>
        <mxCell id="hIWwmgVT_ScR9MW9IXAg-1" value="Service Server" style="shape=umlLifeline;perimeter=lifelinePerimeter;container=1;collapsible=0;recursiveResize=0;rounded=0;shadow=0;strokeWidth=1;" vertex="1" parent="1">
          <mxGeometry x="500" y="80" width="100" height="480" as="geometry" />
        </mxCell>
        <mxCell id="hIWwmgVT_ScR9MW9IXAg-11" value="" style="points=[];perimeter=orthogonalPerimeter;rounded=0;shadow=0;strokeWidth=1;" vertex="1" parent="hIWwmgVT_ScR9MW9IXAg-1">
          <mxGeometry x="45" y="110" width="10" height="40" as="geometry" />
        </mxCell>
        <mxCell id="hIWwmgVT_ScR9MW9IXAg-2" value="" style="points=[];perimeter=orthogonalPerimeter;rounded=0;shadow=0;strokeWidth=1;" vertex="1" parent="hIWwmgVT_ScR9MW9IXAg-1">
          <mxGeometry x="45" y="203" width="10" height="227" as="geometry" />
        </mxCell>
        <mxCell id="hIWwmgVT_ScR9MW9IXAg-15" value="결제 준비 응답" style="endArrow=classic;html=1;rounded=0;" edge="1" parent="hIWwmgVT_ScR9MW9IXAg-1">
          <mxGeometry width="50" height="50" relative="1" as="geometry">
            <mxPoint x="-145" y="204" as="sourcePoint" />
            <mxPoint x="40" y="204" as="targetPoint" />
          </mxGeometry>
        </mxCell>
        <mxCell id="hIWwmgVT_ScR9MW9IXAg-26" value="결제 완료 처리" style="endArrow=classic;html=1;rounded=0;exitX=1.092;exitY=0.818;exitDx=0;exitDy=0;exitPerimeter=0;entryX=1.029;entryY=0.972;entryDx=0;entryDy=0;entryPerimeter=0;" edge="1" parent="hIWwmgVT_ScR9MW9IXAg-1" source="hIWwmgVT_ScR9MW9IXAg-2" target="hIWwmgVT_ScR9MW9IXAg-2">
          <mxGeometry x="0.076" y="20" width="50" height="50" relative="1" as="geometry">
            <mxPoint x="60" y="410" as="sourcePoint" />
            <mxPoint x="110" y="430" as="targetPoint" />
            <Array as="points">
              <mxPoint x="80" y="389" />
              <mxPoint x="80" y="424" />
            </Array>
            <mxPoint as="offset" />
          </mxGeometry>
        </mxCell>
        <mxCell id="hIWwmgVT_ScR9MW9IXAg-3" value="Reservation DB" style="shape=umlLifeline;perimeter=lifelinePerimeter;container=1;collapsible=0;recursiveResize=0;rounded=0;shadow=0;strokeWidth=1;" vertex="1" parent="1">
          <mxGeometry x="700" y="80" width="100" height="480" as="geometry" />
        </mxCell>
        <mxCell id="hIWwmgVT_ScR9MW9IXAg-4" value="" style="points=[];perimeter=orthogonalPerimeter;rounded=0;shadow=0;strokeWidth=1;" vertex="1" parent="hIWwmgVT_ScR9MW9IXAg-3">
          <mxGeometry x="45" y="70" width="10" height="20" as="geometry" />
        </mxCell>
        <mxCell id="hIWwmgVT_ScR9MW9IXAg-29" value="" style="points=[];perimeter=orthogonalPerimeter;rounded=0;shadow=0;strokeWidth=1;" vertex="1" parent="hIWwmgVT_ScR9MW9IXAg-3">
          <mxGeometry x="45" y="460" width="10" height="20" as="geometry" />
        </mxCell>
        <mxCell id="hIWwmgVT_ScR9MW9IXAg-30" value="예매 확정" style="endArrow=classic;html=1;rounded=0;" edge="1" parent="hIWwmgVT_ScR9MW9IXAg-3">
          <mxGeometry width="50" height="50" relative="1" as="geometry">
            <mxPoint x="-524.5" y="480" as="sourcePoint" />
            <mxPoint x="45" y="480" as="targetPoint" />
          </mxGeometry>
        </mxCell>
        <mxCell id="hIWwmgVT_ScR9MW9IXAg-5" value="회원" style="shape=umlActor;verticalLabelPosition=bottom;verticalAlign=top;html=1;outlineConnect=0;" vertex="1" parent="1">
          <mxGeometry x="20" y="130" width="30" height="60" as="geometry" />
        </mxCell>
        <mxCell id="3nuBFxr9cyL0pnOWT2aG-3" value="예매" style="verticalAlign=bottom;startArrow=oval;endArrow=block;startSize=8;shadow=0;strokeWidth=1;exitX=1;exitY=0.3333333333333333;exitDx=0;exitDy=0;exitPerimeter=0;" parent="1" target="3nuBFxr9cyL0pnOWT2aG-2" edge="1" source="hIWwmgVT_ScR9MW9IXAg-5">
          <mxGeometry relative="1" as="geometry">
            <mxPoint x="80" y="140" as="sourcePoint" />
          </mxGeometry>
        </mxCell>
        <mxCell id="hIWwmgVT_ScR9MW9IXAg-12" value="" style="endArrow=classic;html=1;rounded=0;" edge="1" parent="1">
          <mxGeometry width="50" height="50" relative="1" as="geometry">
            <mxPoint x="745" y="170" as="sourcePoint" />
            <mxPoint x="180" y="170" as="targetPoint" />
          </mxGeometry>
        </mxCell>
        <mxCell id="hIWwmgVT_ScR9MW9IXAg-13" value="예매 요청" style="endArrow=classic;html=1;rounded=0;entryX=0.077;entryY=-0.034;entryDx=0;entryDy=0;entryPerimeter=0;" edge="1" parent="1" source="3nuBFxr9cyL0pnOWT2aG-2" target="hIWwmgVT_ScR9MW9IXAg-11">
          <mxGeometry width="50" height="50" relative="1" as="geometry">
            <mxPoint x="390" y="240" as="sourcePoint" />
            <mxPoint x="440" y="190" as="targetPoint" />
          </mxGeometry>
        </mxCell>
        <mxCell id="hIWwmgVT_ScR9MW9IXAg-14" value="결제 준비 요청" style="endArrow=classic;html=1;rounded=0;" edge="1" parent="1">
          <mxGeometry width="50" height="50" relative="1" as="geometry">
            <mxPoint x="549.5" y="229.86" as="sourcePoint" />
            <mxPoint x="360" y="230" as="targetPoint" />
          </mxGeometry>
        </mxCell>
        <mxCell id="hIWwmgVT_ScR9MW9IXAg-16" value="QR 결제 요청" style="endArrow=classic;html=1;rounded=0;exitX=0.077;exitY=0.194;exitDx=0;exitDy=0;exitPerimeter=0;" edge="1" parent="1">
          <mxGeometry width="50" height="50" relative="1" as="geometry">
            <mxPoint x="545.77" y="324.03999999999996" as="sourcePoint" />
            <mxPoint x="180" y="324" as="targetPoint" />
          </mxGeometry>
        </mxCell>
        <mxCell id="hIWwmgVT_ScR9MW9IXAg-20" value="결제" style="endArrow=classic;html=1;rounded=0;exitX=1.188;exitY=0.725;exitDx=0;exitDy=0;exitPerimeter=0;entryX=0.077;entryY=0.047;entryDx=0;entryDy=0;entryPerimeter=0;" edge="1" parent="1">
          <mxGeometry width="50" height="50" relative="1" as="geometry">
            <mxPoint x="176.87999999999988" y="387.25" as="sourcePoint" />
            <mxPoint x="345.77" y="386.81999999999994" as="targetPoint" />
          </mxGeometry>
        </mxCell>
        <mxCell id="hIWwmgVT_ScR9MW9IXAg-21" value="결제 정보 요청" style="endArrow=classic;html=1;rounded=0;exitX=1.156;exitY=0.195;exitDx=0;exitDy=0;exitPerimeter=0;" edge="1" parent="1">
          <mxGeometry width="50" height="50" relative="1" as="geometry">
            <mxPoint x="356.55999999999995" y="372.69999999999993" as="sourcePoint" />
            <mxPoint x="545" y="372.69999999999993" as="targetPoint" />
          </mxGeometry>
        </mxCell>
        <mxCell id="hIWwmgVT_ScR9MW9IXAg-24" value="결제 승인 요청" style="endArrow=classic;html=1;rounded=0;entryX=1.029;entryY=0.467;entryDx=0;entryDy=0;entryPerimeter=0;" edge="1" parent="1" source="hIWwmgVT_ScR9MW9IXAg-2" target="hIWwmgVT_ScR9MW9IXAg-19">
          <mxGeometry width="50" height="50" relative="1" as="geometry">
            <mxPoint x="420" y="300" as="sourcePoint" />
            <mxPoint x="360" y="404" as="targetPoint" />
          </mxGeometry>
        </mxCell>
        <mxCell id="hIWwmgVT_ScR9MW9IXAg-25" value="결제 승인 응답" style="endArrow=classic;html=1;rounded=0;entryX=0.077;entryY=0.915;entryDx=0;entryDy=0;entryPerimeter=0;" edge="1" parent="1" source="hIWwmgVT_ScR9MW9IXAg-19">
          <mxGeometry width="50" height="50" relative="1" as="geometry">
            <mxPoint x="360" y="438" as="sourcePoint" />
            <mxPoint x="545.77" y="438.4" as="targetPoint" />
          </mxGeometry>
        </mxCell>
        <mxCell id="hIWwmgVT_ScR9MW9IXAg-27" value="결제 완료" style="endArrow=classic;html=1;rounded=0;entryX=1.188;entryY=0.88;entryDx=0;entryDy=0;entryPerimeter=0;" edge="1" parent="1">
          <mxGeometry width="50" height="50" relative="1" as="geometry">
            <mxPoint x="549.5" y="509.79999999999995" as="sourcePoint" />
            <mxPoint x="176.87999999999988" y="509.79999999999995" as="targetPoint" />
          </mxGeometry>
        </mxCell>
      </root>
    </mxGraphModel>
  </diagram>
</mxfile>
